<?xml version="1.0" encoding="UTF-8"?>
<svg width="24px" height="24px" version="1.1" viewBox="0 0 700 700"
    xmlns="http://www.w3.org/2000/svg"
    xmlns:xlink="http://www.w3.org/1999/xlink">
    <g>
        <path d="m588 280h-210v-238c0-7.7344-6.2656-14-14-14h-252c-7.7344 0-14 6.2656-14 14v336c0 7.7344 6.2656 14 14 14h238v126c0 7.7344 6.2656 14 14 14h224c7.7344 0 14-6.2656 14-14v-224c0-7.7344-6.2656-14-14-14zm-238 14v70h-224v-308h224zm224 210h-196v-196h196z"/>
        <path d="m168 112h112c7.7344 0 14-6.2656 14-14s-6.2656-14-14-14h-112c-7.7344 0-14 6.2656-14 14s6.2656 14 14 14z"/>
        <path d="m168 168h84c7.7344 0 14-6.2656 14-14s-6.2656-14-14-14h-84c-7.7344 0-14 6.2656-14 14s6.2656 14 14 14z"/>
        <path d="m168 224h140c7.7344 0 14-6.2656 14-14s-6.2656-14-14-14h-140c-7.7344 0-14 6.2656-14 14s6.2656 14 14 14z"/>
        <path d="m168 280h112c7.7344 0 14-6.2656 14-14s-6.2656-14-14-14h-112c-7.7344 0-14 6.2656-14 14s6.2656 14 14 14z"/>
        <path d="m168 336h84c7.7344 0 14-6.2656 14-14s-6.2656-14-14-14h-84c-7.7344 0-14 6.2656-14 14s6.2656 14 14 14z"/>
        <path d="m420 364h84c7.7344 0 14-6.2656 14-14s-6.2656-14-14-14h-84c-7.7344 0-14 6.2656-14 14s6.2656 14 14 14z"/>
        <path d="m420 420h112c7.7344 0 14-6.2656 14-14s-6.2656-14-14-14h-112c-7.7344 0-14 6.2656-14 14s6.2656 14 14 14z"/>
        <path d="m420 476h56c7.7344 0 14-6.2656 14-14s-6.2656-14-14-14h-56c-7.7344 0-14 6.2656-14 14s6.2656 14 14 14z"/>
        <path d="m322 322c0 7.7305-6.2695 14-14 14s-14-6.2695-14-14 6.2695-14 14-14 14 6.2695 14 14"/>
        <path d="m322 154c0 7.7305-6.2695 14-14 14s-14-6.2695-14-14 6.2695-14 14-14 14 6.2695 14 14"/>
    </g>
</svg>
